Land_normalized_Motion_pl17
version=1
nRows=21
nColumns=43
inDegrees=yes
endheader
time		pelvis_tilt		pelvis_list		pelvis_rotation		pelvis_tx		pelvis_ty		pelvis_tz		hip_flexion_r		hip_adduction_r		hip_rotation_r		knee_angle_r		ankle_angle_r		subtalar_angle_r		mtp_angle_r		hip_flexion_l		hip_adduction_l		hip_rotation_l		knee_angle_l		ankle_angle_l		subtalar_angle_l		mtp_angle_l		lumbar_extension		lumbar_bending		lumbar_rotation		neck_flexion		neck_lateral_bending		neck_rotation		arm_flex_r		arm_add_r		arm_rot_r		elbow_flex_r		pro_sup_r		wrist_flex_r		wrist_dev_r		hand_finger_flex_r		arm_flex_l		arm_add_l		arm_rot_l		elbow_flex_l		pro_sup_l		wrist_flex_l		wrist_dev_l		hand_finger_flex_l		
1.239167		-0.122953		4.405053		88.458387		0.008422		0.641649		0.549139		68.611050		3.096688		-0.050031		-107.502272		13.636345		-3.867515		25.385626		67.667441		-4.665278		3.285780		-107.192419		10.325691		11.301936		29.440442		-53.614229		-3.324400		-5.011378		3.311681		-0.659133		6.441760		-14.305421		-20.362897		-19.789220		67.117965		119.996296		-8.580001		-0.655825		13.321404		-15.634325		-17.461893		-29.114000		67.845957		98.804603		-13.146501		-7.423460		15.731253		
1.242399		-0.020203		4.754970		88.457685		0.008546		0.634966		0.547710		69.380268		3.269882		-0.016913		-108.967796		12.451891		-3.968886		29.550227		68.195570		-4.808675		3.585022		-108.551947		10.433529		11.901901		32.080870		-54.856015		-3.236248		-4.940301		4.520209		-0.744259		6.382986		-12.020791		-21.025557		-18.283722		67.969206		119.496347		-10.367552		-0.396815		15.513801		-13.829209		-18.583138		-27.857300		68.558312		97.365717		-14.937113		-7.609206		16.277962		
1.245631		0.011177		5.030572		88.359474		0.008786		0.628517		0.546225		70.172482		3.493047		0.111742		-110.394554		11.931523		-3.593858		29.850081		68.694300		-5.025335		3.750476		-109.815858		10.538468		12.423410		32.373250		-55.964060		-3.286832		-4.830097		5.515128		-0.788437		6.317565		-9.676896		-21.555344		-17.212716		68.736213		119.874096		-10.470091		-0.474460		15.623746		-11.792165		-19.434987		-27.238411		69.090798		97.551713		-15.333235		-7.745021		16.212060		
1.248864		0.051065		5.345771		88.209417		0.009012		0.622215		0.544713		70.919617		3.738135		0.257008		-111.784496		11.382347		-3.107670		30.234304		69.101555		-5.304587		3.913813		-111.062745		10.823953		13.253921		32.729271		-57.082469		-3.345658		-4.729237		6.453148		-0.924733		6.298268		-7.313455		-22.187085		-15.926150		69.558812		120.445845		-10.787255		-0.434102		15.606813		-9.860097		-20.289893		-26.491426		69.709314		97.741014		-16.179703		-7.996121		16.024783		
1.252096		0.052179		5.524381		88.057184		0.009098		0.615678		0.543186		71.837180		3.920765		0.442546		-113.158873		10.751829		-2.443998		31.042992		69.645579		-5.557643		4.036749		-112.314803		11.216281		14.103809		33.177416		-57.978903		-3.402375		-4.630135		7.154589		-1.196870		6.182170		-4.965002		-22.912958		-14.489262		70.347193		120.993437		-11.251468		-0.336718		15.535521		-7.937424		-21.240438		-25.434260		70.212098		97.670979		-17.343117		-8.324719		15.993283		
1.255328		0.023470		5.677134		88.027768		0.008984		0.609341		0.541740		72.763682		3.940385		0.558396		-114.496923		10.175773		-2.051304		31.359431		70.192403		-5.688813		4.110802		-113.467071		11.405832		14.383900		33.354784		-58.809995		-3.394765		-4.497328		7.699550		-1.360566		6.073636		-2.651259		-23.632304		-13.278815		71.040245		121.317535		-11.124810		-0.504268		15.587480		-5.798202		-22.167760		-24.409197		70.587966		97.802875		-17.470594		-8.375070		16.123596		
1.258561		-0.043624		5.763095		87.971657		0.008878		0.602831		0.540278		73.798588		3.941735		0.729539		-115.803392		9.290529		-1.621408		33.812377		70.807970		-5.864485		4.118649		-114.629385		11.688845		14.846622		34.552125		-59.489358		-3.408562		-4.402287		8.021070		-1.686111		5.891531		-0.307351		-24.438763		-11.845804		71.703431		121.692280		-11.257061		-0.574401		15.792415		-3.706532		-23.142565		-23.118673		70.936315		97.905780		-18.677748		-8.272500		18.054412		
1.261793		-0.125158		5.807936		87.923828		0.008823		0.596284		0.538834		74.881431		3.914854		0.896634		-117.068106		8.330668		-1.187328		36.889806		71.468693		-6.079335		4.096237		-115.779843		11.985014		15.398711		36.151222		-60.068269		-3.425988		-4.328116		8.180297		-2.044442		5.755506		2.057332		-25.239814		-10.374195		72.319574		122.089646		-11.429731		-0.613524		16.075471		-1.616363		-24.169440		-21.689509		71.256072		98.084540		-20.092218		-8.029128		20.656894		
1.265025		-0.180216		5.831380		87.905085		0.008826		0.589912		0.537465		75.934863		3.867491		0.974645		-118.297280		7.771277		-0.672038		36.912517		72.153073		-6.333077		4.067894		-116.875645		12.210624		15.813716		36.313632		-60.601677		-3.407346		-4.215457		8.289638		-2.404524		5.641557		4.444308		-25.998533		-9.057880		72.869565		122.499327		-11.077342		-0.795966		16.159226		0.546279		-25.096932		-20.549049		71.542450		98.694885		-19.643903		-7.564577		20.919173		
1.268258		-0.225104		5.762915		87.866780		0.009025		0.583415		0.536120		77.060427		3.834845		1.010086		-119.478570		7.299583		-0.158881		37.158956		72.950076		-6.695637		4.020508		-117.945667		12.437710		16.323771		36.580132		-60.970867		-3.422384		-4.082598		8.222560		-2.758728		5.531823		6.869340		-26.731480		-7.664923		73.275103		122.835346		-10.817675		-0.880989		16.311916		2.737187		-25.944803		-19.521661		71.858890		99.745365		-19.050829		-6.568333		21.228212		
1.271490		-0.248240		5.692355		87.833124		0.009227		0.577080		0.534843		78.112965		3.799479		1.007316		-120.568808		6.915409		0.243823		37.546939		73.768736		-7.110746		3.947171		-118.999684		12.596931		16.726862		36.913049		-61.342974		-3.419210		-3.942929		8.218259		-3.058301		5.464891		9.321748		-27.450094		-6.270464		73.652350		123.031541		-10.625887		-0.983158		16.570601		4.927825		-26.749327		-18.548550		72.222498		100.980817		-18.310697		-5.499335		21.474583		
1.274722		-0.262330		5.674787		87.810186		0.009473		0.570910		0.533544		79.059745		3.724683		0.942941		-121.633643		6.598394		0.562495		37.805038		74.524289		-7.567747		3.829439		-120.030078		12.672029		16.892663		37.088146		-61.760156		-3.402575		-3.792802		8.249447		-3.401071		5.412925		11.760621		-28.219864		-4.842926		74.019448		123.166057		-10.348290		-1.170201		16.858152		7.101918		-27.680075		-17.355567		72.535859		101.799817		-17.575587		-4.874568		21.518928		
1.277955		-0.243383		5.588879		87.782036		0.009651		0.564634		0.532227		80.020124		3.636128		0.856467		-122.654910		6.386729		0.933923		38.591452		75.382129		-8.066665		3.705770		-121.073817		12.759402		17.035534		37.603332		-62.056833		-3.360973		-3.643908		8.179653		-3.712660		5.376758		14.300855		-29.003894		-3.153468		74.222428		122.973800		-10.741597		-1.234371		17.791252		9.226959		-28.428364		-16.435731		72.933755		102.996183		-16.425408		-4.041906		20.934248		
1.281187		-0.203539		5.491978		87.787642		0.009645		0.558486		0.530916		80.903619		3.476523		0.750559		-123.588400		6.165414		1.204511		40.759845		76.242691		-8.529047		3.582945		-122.093807		12.851050		17.052723		39.197364		-62.342794		-3.260900		-3.573132		8.188808		-3.975472		5.433271		17.067866		-29.825890		-0.931593		74.175178		122.072134		-12.734162		-1.089411		20.721702		11.248372		-28.856873		-16.176566		73.477373		104.915148		-14.057570		-3.180206		18.669194		
1.284419		-0.149963		5.342038		87.829178		0.009644		0.552173		0.529541		81.810119		3.273383		0.610949		-124.566546		6.281050		1.713627		40.869485		77.164404		-8.971221		3.464963		-123.119104		13.004917		17.011710		39.337188		-62.548782		-3.123388		-3.374554		8.229552		-4.282139		5.342027		19.522662		-30.449351		0.416935		74.428608		122.467778		-12.635627		-1.157762		20.909526		13.364433		-29.682454		-14.846583		73.817349		105.179159		-13.641090		-2.858101		18.586988		
1.287652		-0.003156		5.145097		87.942692		0.009375		0.545849		0.528120		82.671640		2.972142		0.393462		-125.493494		6.631685		2.507467		41.155072		78.143650		-9.312796		3.459284		-124.136666		13.226522		16.816307		39.641585		-62.633047		-2.834537		-3.208923		8.013452		-4.635467		5.277636		22.214256		-31.039890		2.225297		74.410672		122.702363		-13.335322		-0.792893		21.104273		15.399722		-30.274374		-13.780523		74.142321		105.387472		-13.394616		-2.410586		18.287683		
1.290884		0.029632		5.062769		88.041674		0.009137		0.539934		0.526678		83.353462		2.655169		0.208556		-126.405818		6.952489		2.683680		41.310496		78.879326		-9.638787		3.287414		-125.068374		13.515481		16.657399		39.782612		-62.920837		-2.658682		-3.076635		8.243842		-4.814980		5.230478		24.762351		-31.614921		3.680099		74.600271		122.936915		-13.375988		-0.698611		21.262329		17.484175		-30.931976		-12.650571		74.555336		105.638728		-12.980829		-2.335228		18.310413		
1.294116		0.206273		4.968851		88.217029		0.008612		0.534193		0.525257		83.924937		2.262721		-0.115503		-127.223867		7.426003		2.993857		41.694332		79.642218		-9.856468		3.292610		-125.983985		13.828980		16.359352		40.191894		-63.165042		-2.267783		-3.021782		8.371226		-5.126172		5.317596		27.667225		-32.111073		5.766446		74.539396		122.856938		-14.425031		0.026059		21.516606		19.371875		-31.473671		-11.821912		74.991099		105.756721		-12.888527		-2.186424		18.308262		
1.297348		0.293462		4.909559		88.348191		0.008193		0.528691		0.523854		84.414591		1.918265		-0.381827		-128.005305		7.899473		3.032550		41.947901		80.278930		-10.079482		3.193004		-126.845407		14.231778		16.103088		40.469020		-63.443724		-2.003302		-2.933890		8.482262		-5.344913		5.295295		30.380283		-32.434924		7.272676		74.487447		122.895242		-14.778189		0.331032		21.789431		21.415033		-32.008560		-10.847954		75.346416		105.964625		-12.666928		-2.071596		18.398342		
1.300581		0.394843		4.881701		88.488763		0.007684		0.523454		0.522500		84.789427		1.569738		-0.681310		-128.731867		8.468930		2.942575		42.108858		80.842718		-10.259577		3.100878		-127.666446		14.678746		15.798351		40.607301		-63.764753		-1.718723		-2.813704		8.620165		-5.534693		5.213573		33.004000		-32.655235		8.465728		74.457352		123.069701		-14.745577		0.474741		21.885188		23.507828		-32.544757		-9.794152		75.676637		106.277418		-12.491601		-1.937114		18.492107		
1.303813		0.523226		4.856492		88.632903		0.007118		0.518450		0.521230		85.092947		1.213538		-1.025161		-129.397959		9.092467		2.793638		42.282022		81.389276		-10.392611		3.051069		-128.449801		15.099058		15.461464		40.752800		-64.107968		-1.400790		-2.726457		8.833965		-5.741201		5.191900		35.661509		-32.774596		9.655675		74.380987		123.112045		-14.810648		0.671622		21.893720		25.545915		-33.110807		-8.782423		76.039790		106.605950		-12.460265		-1.775438		18.546021		
